<?xml version="1.0" encoding="utf-8"?>
<!-- Generator: Adobe Illustrator 27.5.0, SVG Export Plug-In . SVG Version: 6.00 Build 0)  -->
<svg version="1.1" xmlns="http://www.w3.org/2000/svg" xmlns:xlink="http://www.w3.org/1999/xlink" x="0px" y="0px"
	 viewBox="0 0 500 500" style="enable-background:new 0 0 500 500;" xml:space="preserve">
<g id="BACKGROUND">
	<rect x="0.096" style="fill:#AEC5E5;" width="499.808" height="500"/>
</g>
<g id="OBJECTS">
	<path style="fill:#94AFD6;" d="M148.188,242.548H55.022c-6.6,0-12-5.4-12-12v-45.615c0-6.6,5.4-12,12-12h93.165c6.6,0,12,5.4,12,12
		v45.615C160.188,237.148,154.788,242.548,148.188,242.548z"/>
	<path style="fill:#94AFD6;" d="M465.257,382.239V164.818c0-3.544-2.873-6.417-6.417-6.417H201.674
		c-3.544,0-6.417,2.873-6.417,6.417v217.422c0,3.544,2.873,6.417,6.417,6.417h257.165
		C462.384,388.657,465.257,385.784,465.257,382.239z"/>
	<g>
		<path style="fill:#FFFFFF;" d="M138.191,230.321H45.025c-6.6,0-12-5.4-12-12v-45.614c0-6.6,5.4-12,12-12h93.165
			c6.6,0,12,5.4,12,12v45.614C150.191,224.921,144.791,230.321,138.191,230.321z"/>
		<g>
			<text transform="matrix(1 0 0 1 56.4632 184.3087)"><tspan x="0" y="0" style="fill:#8EA2BD; font-family:'Montserrat-Bold'; font-size:16.7122px;">0</tspan><tspan x="11.348" y="0" style="fill:#8EA2BD; font-family:'Montserrat-Bold'; font-size:16.7122px;">1:30</tspan><tspan x="43.518" y="0" style="fill:#8EA2BD; font-family:'Montserrat-Bold'; font-size:16.7122px; letter-spacing:-4;"> </tspan><tspan x="43.518" y="0" style="fill:#8EA2BD; font-family:'Montserrat-Bold'; font-size:16.7122px;">PM</tspan></text>
		</g>
		<g>
			<g>
				<g>
					<path style="fill:#364F85;" d="M93.053,204.555H51.081c-1.305,0-2.362-1.058-2.362-2.362l0,0c0-1.305,1.058-2.362,2.362-2.362
						h41.972c1.305,0,2.362,1.058,2.362,2.362l0,0C95.415,203.497,94.357,204.555,93.053,204.555z"/>
					<path style="fill:#364F85;" d="M104.825,204.555h-2.858c-1.305,0-2.362-1.058-2.362-2.362l0,0c0-1.305,1.058-2.362,2.362-2.362
						h2.858c1.305,0,2.362,1.058,2.362,2.362l0,0C107.188,203.497,106.13,204.555,104.825,204.555z"/>
					<path style="fill:#364F85;" d="M93.053,214.595H51.081c-1.305,0-2.362-1.058-2.362-2.362l0,0c0-1.305,1.058-2.362,2.362-2.362
						h41.972c1.305,0,2.362,1.058,2.362,2.362l0,0C95.415,213.538,94.357,214.595,93.053,214.595z"/>
					<path style="fill:#364F85;" d="M104.825,214.595h-2.858c-1.305,0-2.362-1.058-2.362-2.362l0,0c0-1.305,1.058-2.362,2.362-2.362
						h2.858c1.305,0,2.362,1.058,2.362,2.362l0,0C107.188,213.538,106.13,214.595,104.825,214.595z"/>
				</g>
			</g>
			<g>
				<path style="fill:#5770FE;" d="M134.498,204.637c0,4.442-3.601,11.85-8.043,11.85c-4.442,0-8.043-7.408-8.043-11.85
					c0-4.442,3.601-8.043,8.043-8.043C130.897,196.593,134.498,200.195,134.498,204.637z"/>
				<path style="fill:#FFFFFF;" d="M130.492,204.637c0,2.23-1.808,4.038-4.038,4.038s-4.038-1.808-4.038-4.038
					s1.808-4.038,4.038-4.038S130.492,202.406,130.492,204.637z"/>
			</g>
		</g>
		<g>
			<g>
				<g>
					<g>
						<path style="fill:#8EA2BD;" d="M49.98,178.448v3.371c0,1.279-1.524,1.944-2.462,1.074l-1.163-1.08l-2.468-2.291
							c-0.624-0.58-0.624-1.568,0-2.147l2.468-2.291l1.163-1.08c0.938-0.87,2.462-0.205,2.462,1.074V178.448z"/>
					</g>
				</g>
			</g>
			<g>
				<g>
					<g>
						<path style="fill:#8EA2BD;" d="M133.236,178.448v-3.371c0-1.279,1.524-1.944,2.462-1.074l1.163,1.08l2.468,2.291
							c0.624,0.58,0.624,1.568,0,2.147l-2.468,2.291l-1.163,1.08c-0.938,0.87-2.462,0.205-2.462-1.074V178.448z"/>
					</g>
				</g>
			</g>
		</g>
	</g>
	<line style="fill:none;stroke:#3C0000;stroke-miterlimit:10;" x1="35.952" y1="422.792" x2="464.048" y2="422.792"/>
	<g>
		<path style="fill:#D0E9FF;" d="M447.203,365.792V148.371c0-3.544-2.873-6.417-6.417-6.417H183.621
			c-3.544,0-6.417,2.873-6.417,6.417v217.422c0,3.544,2.873,6.417,6.417,6.417h257.165
			C444.33,372.21,447.203,369.337,447.203,365.792z"/>
		<rect x="231.203" y="240.635" style="fill:#364F85;" width="162" height="32.894"/>
		<path style="fill:#5770FE;" d="M447.203,174.847h-270v-26.365c0-3.606,2.923-6.529,6.529-6.529h256.942
			c3.606,0,6.529,2.923,6.529,6.529V174.847z"/>
		<g>
			<line style="fill:none;stroke:#FFFFFF;stroke-miterlimit:10;" x1="447.203" y1="174.847" x2="177.203" y2="174.847"/>
			<g>
				<line style="fill:none;stroke:#FFFFFF;stroke-miterlimit:10;" x1="393.203" y1="372.21" x2="393.203" y2="174.847"/>
				<line style="fill:none;stroke:#FFFFFF;stroke-miterlimit:10;" x1="339.203" y1="372.21" x2="339.203" y2="174.847"/>
				<line style="fill:none;stroke:#FFFFFF;stroke-miterlimit:10;" x1="285.203" y1="372.21" x2="285.203" y2="174.847"/>
				<line style="fill:none;stroke:#FFFFFF;stroke-miterlimit:10;" x1="231.203" y1="372.21" x2="231.203" y2="174.847"/>
			</g>
			<line style="fill:none;stroke:#FFFFFF;stroke-miterlimit:10;" x1="447.203" y1="207.741" x2="177.203" y2="207.741"/>
			<line style="fill:none;stroke:#FFFFFF;stroke-miterlimit:10;" x1="447.203" y1="240.635" x2="177.203" y2="240.635"/>
			<line style="fill:none;stroke:#FFFFFF;stroke-miterlimit:10;" x1="447.203" y1="273.528" x2="177.203" y2="273.528"/>
			<line style="fill:none;stroke:#FFFFFF;stroke-miterlimit:10;" x1="447.203" y1="306.422" x2="177.203" y2="306.422"/>
			<line style="fill:none;stroke:#FFFFFF;stroke-miterlimit:10;" x1="447.203" y1="339.316" x2="177.203" y2="339.316"/>
		</g>
		<g>
			<text transform="matrix(1 0 0 1 271.7695 188.7585)" style="fill:#042E44; font-family:'Montserrat-SemiBold'; font-size:12px;">1</text>
			<text transform="matrix(1 0 0 1 326.131 188.7585)" style="fill:#042E44; font-family:'Montserrat-SemiBold'; font-size:12px;">2</text>
			<text transform="matrix(1 0 0 1 380.4924 188.7585)" style="fill:#042E44; font-family:'Montserrat-SemiBold'; font-size:12px;">3</text>
			<text transform="matrix(1 0 0 1 434.8539 188.7585)" style="fill:#042E44; font-family:'Montserrat-SemiBold'; font-size:12px;">4</text>
			<text transform="matrix(1 0 0 1 271.7695 220.2765)" style="fill:#042E44; font-family:'Montserrat-SemiBold'; font-size:12px;">6</text>
			<text transform="matrix(1 0 0 1 216.8298 220.2765)" style="fill:#042E44; font-family:'Montserrat-SemiBold'; font-size:12px;">5</text>
			<text transform="matrix(1 0 0 1 326.131 220.2765)" style="fill:#042E44; font-family:'Montserrat-SemiBold'; font-size:12px;">7</text>
			<text transform="matrix(1 0 0 1 380.4924 220.2765)" style="fill:#042E44; font-family:'Montserrat-SemiBold'; font-size:12px;">8</text>
			<text transform="matrix(1 0 0 1 434.8539 220.2765)" style="fill:#042E44; font-family:'Montserrat-SemiBold'; font-size:12px;">9</text>
			<text transform="matrix(1 0 0 1 269.1052 253.8187)" style="fill:#FFFFFF; font-family:'Montserrat-SemiBold'; font-size:12px;">11</text>
			<text transform="matrix(1 0 0 1 211.9142 253.8187)" style="fill:#042E44; font-family:'Montserrat-SemiBold'; font-size:12px;">10</text>
			<text transform="matrix(1 0 0 1 211.9142 288.2288)" style="fill:#042E44; font-family:'Montserrat-SemiBold'; font-size:12px;">15</text>
			<text transform="matrix(1 0 0 1 211.9142 320.6143)" style="fill:#042E44; font-family:'Montserrat-SemiBold'; font-size:12px;">20</text>
			<text transform="matrix(1 0 0 1 211.9142 353.2888)" style="fill:#042E44; font-family:'Montserrat-SemiBold'; font-size:12px;">25</text>
			<text transform="matrix(1 0 0 1 320.9948 253.8187)" style="fill:#FFFFFF; font-family:'Montserrat-SemiBold'; font-size:12px;">12</text>
			<text transform="matrix(1 0 0 1 376.2441 253.8187)" style="fill:#FFFFFF; font-family:'Montserrat-SemiBold'; font-size:12px;">13</text>
			<text transform="matrix(1 0 0 1 429.4423 253.8187)" style="fill:#042E44; font-family:'Montserrat-SemiBold'; font-size:12px;">14</text>
			<text transform="matrix(1 0 0 1 266.5496 288.2283)" style="fill:#042E44; font-family:'Montserrat-SemiBold'; font-size:12px;">16</text>
			<text transform="matrix(1 0 0 1 320.9108 288.2283)" style="fill:#042E44; font-family:'Montserrat-SemiBold'; font-size:12px;">17</text>
			<text transform="matrix(1 0 0 1 375.2725 288.2283)" style="fill:#042E44; font-family:'Montserrat-SemiBold'; font-size:12px;">18</text>
			<text transform="matrix(1 0 0 1 429.6337 288.2283)" style="fill:#042E44; font-family:'Montserrat-SemiBold'; font-size:12px;">19</text>
			<text transform="matrix(1 0 0 1 267.0056 320.6139)" style="fill:#042E44; font-family:'Montserrat-SemiBold'; font-size:12px;">21</text>
			<text transform="matrix(1 0 0 1 318.8951 320.6139)" style="fill:#042E44; font-family:'Montserrat-SemiBold'; font-size:12px;">22</text>
			<text transform="matrix(1 0 0 1 374.1445 320.6139)" style="fill:#042E44; font-family:'Montserrat-SemiBold'; font-size:12px;">23</text>
			<text transform="matrix(1 0 0 1 427.3417 320.6139)" style="fill:#042E44; font-family:'Montserrat-SemiBold'; font-size:12px;">24</text>
			<text transform="matrix(1 0 0 1 264.45 353.2886)" style="fill:#042E44; font-family:'Montserrat-SemiBold'; font-size:12px;">26</text>
			<text transform="matrix(1 0 0 1 318.8112 353.2886)" style="fill:#042E44; font-family:'Montserrat-SemiBold'; font-size:12px;">27</text>
			<text transform="matrix(1 0 0 1 373.1729 353.2886)" style="fill:#042E44; font-family:'Montserrat-SemiBold'; font-size:12px;">28</text>
		</g>
	</g>
	<g>
		<text transform="matrix(1 0 0 1 280.1915 160.2646)"><tspan x="0" y="0" style="fill:#FFFFFF; font-family:'Montserrat-Bold'; font-size:11.3781px;">F</tspan><tspan x="7.271" y="0" style="fill:#FFFFFF; font-family:'Montserrat-Bold'; font-size:11.3781px;">EBRUARY</tspan></text>
	</g>
	<g>
		<g>
			<g>
				<g>
					<path style="fill:#FFFFFF;" d="M246.311,155.31v3.371c0,1.279-1.524,1.944-2.462,1.074l-1.163-1.08l-2.468-2.291
						c-0.625-0.58-0.625-1.568,0-2.147l2.468-2.291l1.163-1.08c0.938-0.87,2.462-0.205,2.462,1.074V155.31z"/>
				</g>
			</g>
			<g>
				<g>
					<path style="fill:#FFFFFF;" d="M378.385,155.31v-3.371c0-1.279,1.524-1.944,2.462-1.074l1.163,1.08l2.468,2.291
						c0.625,0.58,0.625,1.568,0,2.147l-2.468,2.291l-1.163,1.08c-0.938,0.87-2.462,0.205-2.462-1.074V155.31z"/>
				</g>
			</g>
		</g>
	</g>
	<g>
		
			<line style="fill:none;stroke:#CA393C;stroke-width:4;stroke-linecap:round;stroke-linejoin:round;stroke-miterlimit:10;" x1="423.372" y1="331.936" x2="405.489" y2="314.053"/>
		
			<line style="fill:none;stroke:#CA393C;stroke-width:4;stroke-linecap:round;stroke-linejoin:round;stroke-miterlimit:10;" x1="423.372" y1="314.053" x2="405.489" y2="331.936"/>
	</g>
	<g>
		
			<line style="fill:none;stroke:#CA393C;stroke-width:4;stroke-linecap:round;stroke-linejoin:round;stroke-miterlimit:10;" x1="368.171" y1="331.936" x2="350.288" y2="314.053"/>
		
			<line style="fill:none;stroke:#CA393C;stroke-width:4;stroke-linecap:round;stroke-linejoin:round;stroke-miterlimit:10;" x1="368.171" y1="314.053" x2="350.288" y2="331.936"/>
	</g>
	<g>
		<path style="fill:#FECE54;" d="M261.723,190.775l-60.511,0.252c-3.303,0.014-5.969,2.702-5.955,6.005l0.079,18.938
			c0.014,3.303,2.702,5.969,6.005,5.955l0,0l0.049,11.767l11.114-11.813l49.348-0.206c3.303-0.014,5.969-2.702,5.955-6.005
			l-0.079-18.938C267.714,193.427,265.026,190.761,261.723,190.775z"/>
		<path style="fill:#FFFFFF;" d="M245.651,205.493c0-2.227,1.805-4.032,4.031-4.032s4.031,1.805,4.031,4.032
			c0,2.227-1.805,4.031-4.031,4.031S245.651,207.719,245.651,205.493z"/>
		<path style="fill:#FFFFFF;" d="M227.504,205.493c0-2.227,1.805-4.032,4.032-4.032c2.227,0,4.031,1.805,4.031,4.032
			c0,2.227-1.805,4.031-4.031,4.031C229.309,209.524,227.504,207.719,227.504,205.493z"/>
		<path style="fill:#FFFFFF;" d="M209.358,205.493c0-2.227,1.805-4.032,4.032-4.032c2.227,0,4.032,1.805,4.032,4.032
			c0,2.227-1.805,4.031-4.032,4.031C211.163,209.524,209.358,207.719,209.358,205.493z"/>
	</g>
	<g>
		<circle style="fill:#B8D1F2;" cx="129.184" cy="93.676" r="29.942"/>
		<polyline style="fill:none;stroke:#3C0000;stroke-miterlimit:10;" points="129.779,74.307 129.779,93.676 113.979,104.401 		"/>
		
			<ellipse transform="matrix(0.7071 -0.7071 0.7071 0.7071 -28.4014 118.7842)" style="fill:none;stroke:#C7E0FF;stroke-width:2;stroke-miterlimit:10;" cx="129.185" cy="93.676" rx="39.056" ry="39.056"/>
	</g>
	<g>
		<path style="fill:#FE7A63;" d="M72.831,383.755c0,0-3.092,12.138-2.383,17.433c0.709,5.295,24.023-15.738,24.023-15.738
			L72.831,383.755z"/>
		<path style="fill:#CA393C;" d="M211.944,313.428c12.563,4.804,16.818,15.771,22.289,33.018
			c6.395,20.16,11.347,37.178,11.347,37.178l-33.636,2.913V313.428z"/>
		<polygon style="fill:#CA393C;" points="211.944,313.428 178.046,298.471 150.02,298.471 108.346,313.428 108.346,422.312 
			211.944,422.245 		"/>
		<polygon style="fill:#BA3537;" points="155.46,323.877 155.46,347.673 163.157,347.673 162.324,323.753 		"/>
		<path style="fill:#CA393C;" d="M108.346,313.428c-12.563,4.804-20.367,15.771-25.838,33.018
			c-6.395,20.16-11.347,37.178-11.347,37.178l37.186,2.913V313.428z"/>
		<polygon style="fill:#FFFFFF;" points="108.346,386.537 68.723,383.755 71.16,369.336 108.346,372.585 		"/>
		<path style="fill:#441B15;" d="M131.181,257.876c0,0-4.79-21.269-3.691-28.453c1.098-7.184,8.316-7.184,8.316-7.184
			s-2.042-3.25,1.507-7.184c2.427-2.691,25.418-5.816,32.635-11.973c7.217-6.158,4.411,7.205,4.411,7.205s5.296-4.468,8.327-4.126
			c3.031,0.342,0,8.552,0,8.552s7.015-3.421,8.444-1.71c1.429,1.71-3.71,7.526-7.094,12.115c0,0,4.297-1.433,7.094,2.634
			c2.797,4.066-0.889,25.39-2.334,29.842C187.349,262.046,135.313,264.777,131.181,257.876z"/>
		<path style="fill:#FE7A63;" d="M137.312,254.952c0,0-7.917-5.391-9.741,1.082c-1.552,5.509,5.904,8.265,9.741,4.723V254.952z"/>
		
			<line style="fill:none;stroke:#41313B;stroke-width:0.5697;stroke-miterlimit:10;" x1="131.181" y1="255.183" x2="135.805" y2="260.005"/>
		
			<line style="fill:none;stroke:#41313B;stroke-width:0.5697;stroke-miterlimit:10;" x1="131.181" y1="259.414" x2="133.763" y2="257.876"/>
		<path style="fill:#FE7A63;" d="M181.178,254.952c0,0,7.917-5.391,9.741,1.082c1.552,5.509-5.904,8.265-9.741,4.723V254.952z"/>
		
			<line style="fill:none;stroke:#41313B;stroke-width:0.5697;stroke-miterlimit:10;" x1="187.309" y1="255.183" x2="182.685" y2="260.005"/>
		
			<line style="fill:none;stroke:#41313B;stroke-width:0.5697;stroke-miterlimit:10;" x1="187.309" y1="259.414" x2="184.727" y2="257.876"/>
		<path style="fill:#BA3537;" d="M142.345,290.056c0,0-12.234,9.143-14.624,11.656c-2.391,2.513,14.512,29.852,14.512,29.852
			l9.2-7.767l7.877,2.389l-18.537-25.144L142.345,290.056z"/>
		<path style="fill:#BA3537;" d="M177.81,290.056c0,0,10.697,9.143,13.087,11.656c2.391,2.513-14.512,29.852-14.512,29.852
			l-9.2-7.767l-7.877,2.389l20.837-25.144L177.81,290.056z"/>
		<polygon style="fill:#E8705A;" points="174.779,270.714 145.114,270.714 140.772,301.042 159.309,326.186 180.146,301.042 		"/>
		<path style="fill:#FE7A63;" d="M181.083,238.115c-2.566-7.995-11-6.511-21.774-6.511c-10.774,0-20.817-0.295-22.584,7.913
			c-6.438,29.894,7.765,50.538,22.356,50.538C173.469,290.056,191.129,269.411,181.083,238.115z"/>
		<path style="fill:#F4F4F4;" d="M152.206,274.027h15.491c0,0-1.737,12.265-8.03,12.265
			C153.982,286.293,152.206,274.027,152.206,274.027z"/>
		<g>
			<g>
				<g>
					<g>
						<g>
							<path style="fill:#0D0000;" d="M152.998,254.457c0.004,1.585-0.693,2.873-1.558,2.875c-0.865,0.002-1.569-1.281-1.573-2.867
								c-0.004-1.586,0.693-2.873,1.558-2.875C152.289,251.588,152.994,252.871,152.998,254.457z"/>
						</g>
					</g>
				</g>
			</g>
		</g>
		<path style="fill:#E85B41;" d="M140.428,263.68c-0.088-1.68,8.46-1.887,8.528,0C149.025,265.567,140.565,266.292,140.428,263.68z"
			/>
		<g>
			<g>
				<g>
					<g>
						<g>
							<path style="fill:#0D0000;" d="M165.358,254.457c-0.004,1.585,0.693,2.873,1.558,2.875c0.864,0.002,1.569-1.281,1.573-2.867
								c0.004-1.586-0.693-2.873-1.558-2.875C166.066,251.588,165.362,252.871,165.358,254.457z"/>
						</g>
					</g>
				</g>
			</g>
		</g>
		<path style="fill:#E85B41;" d="M177.733,263.68c0.088-1.68-8.46-1.887-8.528,0C169.137,265.567,177.596,266.292,177.733,263.68z"
			/>
		<path style="fill:#441B15;" d="M144.262,246.342c-0.151-1.406,9.124-1.917,8.813,0.196
			C152.763,248.651,144.458,248.179,144.262,246.342z"/>
		<path style="fill:#441B15;" d="M174.356,246.342c0.151-1.406-9.124-1.917-8.813,0.196
			C165.854,248.651,174.16,248.179,174.356,246.342z"/>
		<path style="fill:#441B15;" d="M153.1,229.142c0,0-9.691,4.058-9.491,6.227c0.201,2.169,20.626,5.083,27.226-2.943
			C177.435,224.401,153.1,229.142,153.1,229.142z"/>
		<path style="fill:none;stroke:#41313B;stroke-width:0.5697;stroke-miterlimit:10;" d="M159.425,257.508
			c0,0-1.141,10.725-1.273,11.648c-0.132,0.923,4.616,1.055,4.616,1.055"/>
		<path style="fill:#FE7A63;" d="M111.445,284.743c0,0,1.136-3.918,1.758-5.764c0.623-1.846,8.128-2.819,8.579-2.169
			C122.233,277.46,120.059,285.09,111.445,284.743z"/>
		<path style="fill:#FFFFFF;" d="M119.574,259.698c-2.532,1.77-4.336,4.188-5.405,7.519c-0.078,0.591-0.317,1.536-0.311,2.48
			c0.001,0.201,0.008,0.398,0.012,0.597c-0.001,0.016-0.004,0.031-0.004,0.047c0.002,0.113,0.009,0.223,0.011,0.335
			c0.009,0.38,0.022,0.758,0.039,1.134c0.009,0.193,0.017,0.386,0.027,0.578c0.024,0.428,0.054,0.853,0.087,1.276
			c0.008,0.104,0.013,0.21,0.022,0.314c0,0.006,0.003,0.011,0.003,0.017c0.099,1.141,0.236,2.262,0.409,3.363
			c0.001,0.012,0.001,0.023,0.003,0.035c0.018,0.116,0.041,0.23,0.06,0.345c0.051,0.31,0.104,0.62,0.161,0.926
			c0.014,0.078,0.026,0.157,0.041,0.235c0.039,0.204,0.082,0.405,0.124,0.607c0.023,0.112,0.045,0.224,0.068,0.335
			c0.088,0.41,0.18,0.817,0.278,1.221c0.019,0.076,0.039,0.152,0.058,0.228c0.082,0.33,0.168,0.657,0.257,0.983
			c0.036,0.13,0.073,0.26,0.11,0.389c0.08,0.281,0.163,0.561,0.249,0.84c0.038,0.125,0.076,0.25,0.116,0.374
			c0.111,0.348,0.225,0.694,0.344,1.037c0.015,0.043,0.029,0.087,0.044,0.131c0.135,0.384,0.276,0.764,0.422,1.143
			c0.043,0.111,0.088,0.222,0.132,0.333c0.108,0.273,0.218,0.544,0.332,0.814c0.052,0.124,0.104,0.247,0.158,0.371
			c0.12,0.278,0.244,0.555,0.37,0.829c0.044,0.095,0.087,0.192,0.131,0.287c0.171,0.364,0.347,0.725,0.528,1.083
			c0.037,0.074,0.077,0.146,0.114,0.219c0.148,0.286,0.298,0.571,0.453,0.854c0.063,0.116,0.128,0.231,0.192,0.346
			c0.14,0.25,0.282,0.498,0.428,0.744c0.064,0.109,0.127,0.217,0.192,0.326c0.192,0.319,0.388,0.636,0.589,0.95
			c0.017,0.026,0.032,0.052,0.049,0.078c0.19,0.294,0.383,0.587,0.581,0.876c0.006,0.009,0.014,0.016,0.021,0.025
			c3.314,4.848,7.762,9.066,13.338,12.644c1.654,1.064,3.854,1.624,5.842,1.753c3.214,0.208,5.534-0.365,7.22-1.755
			c1.148-0.939,2.003-2.259,2.648-3.965c0.391-1.032,0.3-1.808-0.472-2.591c-2.236-2.271-4.441-4.57-6.649-6.868
			c-0.649-0.674-1.337-0.8-2.04-0.593c-0.277,0.082-0.559,0.216-0.839,0.389c-1.037,0.639-2.067,1.286-3.086,1.948
			c-0.406,0.266-0.813,0.532-1.217,0.802c-1.065,0.714-1.963,0.529-2.857-0.311c-5.354-5.034-8.809-11.116-10.272-18.332
			c-0.259-1.274,0.05-2.177,1.266-2.734c0.425-0.195,0.848-0.386,1.273-0.581c1.072-0.495,2.143-0.996,3.196-1.53
			c0.32-0.163,0.617-0.349,0.859-0.571c0.47-0.432,0.728-1.007,0.523-1.822c-0.818-3.24-1.617-6.487-2.493-9.711
			c-0.138-0.502-0.559-1.18-0.987-1.305c-1.734-0.512-3.522-0.786-5.184-0.262C120.602,259.094,120.078,259.345,119.574,259.698z"/>
		<path style="fill:#FE7A63;" d="M106.181,305.804c0,0-34.357,85.438-35.733,95.384c-1.376,9.946,15.893,28.479,31.97,10.561
			c10.289-11.467,13.502-98.735,13.502-98.735L106.181,305.804z"/>
		<path style="fill:#FE7A63;" d="M106.181,305.804c0,0,4.567-17.316,5.264-21.061c0.698-3.746,18.032-2.921,19.163-1.37
			c1.131,1.552-2.443,5.015-2.443,5.015s2.757,2.085,1.978,3.466c-0.779,1.381-2.643,1.94-2.643,1.94s4.197,1.117,3.435,2.854
			c-0.763,1.737-6.674,0.922-6.674,0.922s-1.562,14.263-8.342,15.444L106.181,305.804z"/>
		<line style="fill:none;stroke:#3C0000;stroke-miterlimit:10;" x1="116.206" y1="282.599" x2="113.528" y2="283.04"/>
		<path style="fill:#E8705A;" d="M139.79,409.512c0,0-8.68-1.953-10.633-2.17c-1.953-0.217-13.196,10.943-13.433,12.694
			c-0.237,1.751,2.258,3.797,11.046-1.302C135.558,413.635,139.79,409.512,139.79,409.512z"/>
		<path style="fill:#FE7A63;" d="M153.567,411.429l58.377-13.782v-11.111l30.268-2.621c0,0,4.908,25.272,1.06,35.926
			c-1.441,3.989-88.43,1.946-88.43,1.946L153.567,411.429z"/>
		<path style="fill:#FE7A63;" d="M153.567,411.429c0,0-14.211-3.207-16.815-3.376c-2.604-0.168-17.359,10.464-16.708,12.851
			c0.651,2.387,11.067,0.434,15.189-4.991c0,0,6.265,8.571,19.609,5.874L153.567,411.429z"/>
		<polygon style="fill:#FFFFFF;" points="211.944,386.537 248.659,383.736 245.58,369.336 211.944,372.824 		"/>
		<path style="fill:none;stroke:#3C0000;stroke-miterlimit:10;" d="M211.944,397.647c0,0,5.243-1.629,8.835-1.116
			c3.592,0.513,4.96,3.592,4.96,3.592"/>
		<line style="fill:none;stroke:#3C0000;stroke-miterlimit:10;" x1="211.944" y1="386.537" x2="210.688" y2="335.713"/>
		<line style="fill:none;stroke:#3C0000;stroke-miterlimit:10;" x1="75.922" y1="383.997" x2="73.412" y2="391.141"/>
	</g>
</g>
</svg>
